<?xml version="1.0" standalone="no"?>
<!DOCTYPE svg PUBLIC "-//W3C//DTD SVG 20010904//EN"
 "http://www.w3.org/TR/2001/REC-SVG-20010904/DTD/svg10.dtd">
<svg version="1.0" xmlns="http://www.w3.org/2000/svg"
 width="1400.000000pt" height="900.000000pt" viewBox="0 0 778.000000 676.000000"
 preserveAspectRatio="xMidYMid meet">

<g transform="translate(0.000000,676.000000) scale(0.100000,-0.100000)"
fill="white" stroke="bold">
<path d="M4818 6383 c7 -3 16 -2 19 1 4 3 -2 6 -13 5 -11 0 -14 -3 -6 -6z"/>
<path d="M4719 6333 l-24 -28 28 24 c25 23 32 31 24 31 -2 0 -14 -12 -28 -27z"/>
<path d="M4956 6297 c3 -10 9 -15 12 -12 3 3 0 11 -7 18 -10 9 -11 8 -5 -6z"/>
<path d="M4969 6222 c-9 -83 -73 -137 -154 -130 -29 2 -41 -1 -38 -8 2 -6 -3
-39 -12 -73 -15 -59 -13 -87 5 -76 4 3 11 24 15 48 13 88 16 97 35 97 14 0 22
-15 35 -69 9 -39 14 -75 10 -81 -9 -14 24 -65 35 -54 12 14 22 67 11 59 -6 -3
-13 7 -17 22 -3 15 -10 44 -15 63 -20 77 -2 93 42 37 43 -54 98 -145 92 -151
-6 -6 25 -35 37 -36 4 0 4 16 2 36 -2 19 -6 33 -9 30 -5 -5 -111 148 -121 173
-6 17 50 -31 166 -141 40 -38 70 -73 68 -77 -3 -4 10 -13 29 -19 19 -5 35 -9
35 -8 0 19 -24 64 -33 61 -7 -2 -59 41 -117 97 -58 56 -89 89 -70 74 19 -14
53 -36 75 -48 58 -30 208 -133 224 -152 7 -9 10 -16 5 -17 -5 -1 7 -5 26 -9
19 -5 36 -7 38 -6 7 8 -23 56 -33 53 -6 -3 -40 17 -75 44 -36 27 -91 63 -122
79 -32 17 -58 33 -58 34 0 9 153 -60 220 -99 41 -24 96 -54 123 -66 26 -13 47
-29 47 -36 0 -8 12 -13 30 -13 18 0 30 5 30 13 0 16 -34 50 -42 41 -7 -6 -182
80 -217 107 -15 12 -18 19 -9 19 8 0 18 -4 24 -9 5 -5 58 -30 118 -55 164 -70
226 -99 226 -108 0 -4 17 -8 37 -8 l36 0 -22 24 c-13 14 -31 24 -40 24 -17 -1
-283 113 -277 119 2 2 41 -11 87 -28 46 -17 149 -56 229 -86 80 -30 163 -59
185 -64 35 -9 149 -50 372 -134 56 -21 62 -21 53 -5 -9 17 -260 115 -360 141
-25 6 -88 28 -140 48 -52 21 -130 50 -173 66 -43 15 -76 29 -74 31 6 7 400
-125 407 -137 5 -7 19 -9 39 -4 32 7 32 7 14 28 -16 18 -16 20 -1 14 9 -3 35
-11 57 -17 23 -6 41 -15 41 -20 0 -11 30 -13 55 -4 15 6 15 8 0 24 -16 17 -14
17 47 2 35 -8 66 -20 69 -25 4 -5 19 -7 35 -3 28 7 29 8 9 23 -19 15 -19 15 5
10 14 -3 42 -9 63 -12 20 -4 40 -11 43 -16 6 -10 48 -12 57 -2 4 3 2 12 -4 19
-8 9 -1 10 33 2 24 -5 53 -14 65 -20 25 -12 77 -2 68 13 -8 11 70 1 98 -13 11
-5 30 -7 44 -3 l26 6 -24 17 c-13 9 -31 16 -39 14 -13 -2 -140 22 -615 114
-71 14 -173 31 -225 39 -89 12 -336 59 -747 141 -95 19 -175 34 -177 34 -3 0
-6 12 -8 28 -2 18 -5 9 -9 -26z m894 -286 c87 -24 115 -36 86 -36 -17 0 -202
60 -209 67 -3 3 4 3 15 0 11 -3 60 -17 108 -31z m94 8 c-3 -3 -12 -4 -19 -1
-8 3 -5 6 6 6 11 1 17 -2 13 -5z m106 -26 c26 -6 47 -15 47 -19 0 -7 -131 29
-140 39 -3 3 6 2 20 -2 14 -3 46 -12 73 -18z m184 -14 c-3 -3 -12 -4 -19 -1
-8 3 -5 6 6 6 11 1 17 -2 13 -5z"/>
<path d="M4671 6234 c0 -6 -49 -21 -108 -33 -258 -53 -676 -132 -773 -147 -58
-8 -150 -24 -205 -34 -94 -18 -647 -125 -800 -155 -38 -7 -97 -17 -130 -20
-53 -6 -208 -35 -638 -119 -65 -13 -121 -26 -124 -30 -18 -18 19 -17 125 3 64
13 241 47 392 77 151 30 323 61 383 69 59 8 126 19 150 25 56 13 67 12 65 -2
-4 -16 39 -23 55 -10 7 6 35 13 62 17 35 4 46 3 36 -4 -22 -15 34 -27 62 -13
12 6 33 14 47 17 14 4 34 9 45 12 17 5 18 4 7 -9 -10 -13 -10 -17 4 -22 23 -9
54 -7 54 2 0 10 109 36 117 28 3 -3 -2 -9 -12 -12 -15 -6 -13 -9 11 -20 24
-10 25 -13 9 -14 -39 -2 -377 -118 -393 -135 -21 -21 -35 -25 248 66 118 37
235 73 260 78 25 6 80 21 122 35 74 23 77 23 67 4 -13 -23 -12 -24 24 -33 20
-5 27 -4 25 5 -3 11 120 66 128 57 3 -2 -5 -16 -17 -30 l-20 -27 31 0 c17 0
39 8 50 18 11 10 57 33 102 51 46 19 119 51 163 72 108 50 159 61 70 14 -38
-20 -97 -51 -130 -70 -33 -19 -67 -34 -75 -32 -13 2 -50 -32 -50 -47 0 -3 16
-6 36 -6 19 0 33 4 30 9 -7 11 131 91 294 170 106 51 138 54 45 4 -16 -9 -69
-42 -116 -74 -48 -32 -89 -56 -92 -53 -3 3 -13 -9 -22 -27 -16 -30 -16 -32 0
-25 9 3 23 6 31 6 8 0 14 6 14 13 0 9 145 112 228 162 9 6 35 22 57 36 65 42
73 43 25 2 -25 -21 -73 -66 -108 -101 -35 -34 -68 -60 -73 -57 -8 6 -29 -34
-29 -55 0 -4 15 -3 34 2 20 6 32 16 30 23 -5 12 116 132 194 193 46 37 52 33
19 -14 -12 -18 -37 -54 -56 -80 -19 -27 -40 -54 -47 -60 -8 -6 -17 -25 -20
-43 l-7 -32 31 18 c17 10 30 24 29 33 -1 16 34 74 90 148 l33 43 -33 33 c-18
18 -37 50 -44 72 -6 21 -11 34 -12 28z m-376 -203 c-6 -5 -55 -28 -110 -51
-55 -23 -117 -50 -138 -61 -45 -22 -47 -23 -47 -6 0 12 25 23 205 91 105 40
102 39 90 27z m-166 -25 c-14 -14 -280 -108 -287 -102 -8 9 -5 10 138 59 131
44 158 52 149 43z m-204 -36 c-11 -5 -27 -9 -35 -9 -9 0 -8 4 5 9 11 5 27 9
35 9 9 0 8 -4 -5 -9z m-90 -27 c-84 -32 -289 -92 -294 -86 -8 8 0 10 164 59
143 42 201 55 130 27z m-118 1 c-3 -3 -12 -4 -19 -1 -8 3 -5 6 6 6 11 1 17 -2
13 -5z m-40 -10 c-3 -3 -12 -4 -19 -1 -8 3 -5 6 6 6 11 1 17 -2 13 -5z m-87
-24 c-30 -10 -56 -17 -59 -15 -7 7 68 32 99 33 8 0 -10 -8 -40 -18z m-123 4
c-3 -3 -12 -4 -19 -1 -8 3 -5 6 6 6 11 1 17 -2 13 -5z m-40 -10 c-3 -3 -12 -4
-19 -1 -8 3 -5 6 6 6 11 1 17 -2 13 -5z"/>
<path d="M4640 5800 c0 -64 3 -80 15 -80 12 0 15 14 15 65 0 60 2 65 24 71 39
9 46 -2 46 -72 0 -50 3 -64 15 -64 12 0 15 14 15 64 0 56 3 66 20 71 33 10 40
-3 40 -71 0 -50 3 -64 15 -64 12 0 15 13 15 61 0 33 -5 69 -10 80 -12 21 -59
26 -77 8 -8 -8 -13 -8 -17 0 -10 15 -69 14 -84 -1 -9 -9 -12 -9 -12 0 0 7 -4
12 -10 12 -6 0 -10 -33 -10 -80z"/>
<path d="M3028 5819 c-10 -5 -18 -19 -18 -31 0 -11 -8 -27 -17 -34 -17 -13
-17 -13 0 -14 14 0 17 -10 17 -70 0 -56 3 -70 15 -70 12 0 15 14 15 70 0 60 3
70 18 70 16 1 16 1 0 14 -22 16 -24 46 -3 46 8 0 15 7 15 15 0 17 -17 19 -42
4z"/>
<path d="M6367 5813 c-4 -3 -7 -16 -7 -29 0 -12 -6 -25 -12 -28 -10 -5 -10 -7
0 -12 7 -4 12 -27 12 -63 0 -31 5 -62 12 -69 17 -17 48 -15 48 3 0 8 -7 15
-15 15 -23 0 -21 98 3 116 16 13 16 13 0 14 -13 0 -18 8 -18 30 0 29 -9 38
-23 23z"/>
<path d="M1722 5724 c-12 -8 -22 -19 -22 -25 0 -14 22 -11 41 7 24 21 69 11
69 -15 0 -15 -10 -20 -45 -25 -25 -4 -51 -14 -59 -22 -15 -15 -11 -43 8 -56
16 -11 64 -10 87 2 13 7 19 7 19 0 0 -5 3 -10 8 -10 11 0 2 133 -10 148 -14
17 -69 15 -96 -4z m88 -87 c0 -21 -22 -37 -51 -37 -32 0 -45 25 -21 39 25 15
72 13 72 -2z"/>
<path d="M4686 5655 c-3 -9 0 -15 9 -15 8 0 15 7 15 15 0 8 -4 15 -9 15 -5 0
-11 -7 -15 -15z"/>
<path d="M2870 5645 c-30 -7 -109 -31 -176 -52 -108 -34 -120 -40 -114 -57 4
-11 9 -15 12 -10 4 5 85 34 182 64 97 30 176 58 176 63 0 9 -13 8 -80 -8z"/>
<path d="M6470 5647 c12 -12 277 -117 295 -117 3 0 5 6 5 14 0 8 12 29 26 48
l26 33 -31 -33 -31 -33 -123 44 c-67 24 -135 47 -152 51 -27 6 -28 6 -15 -7z"/>
<path d="M1555 5643 c-16 -2 -124 -22 -240 -44 -115 -22 -238 -46 -272 -52
l-61 -11 -4 -47 c-1 -26 0 -45 5 -42 4 2 7 17 7 33 0 33 -37 23 365 100 149
29 274 57 280 61 9 9 -22 10 -80 2z"/>
<path d="M765 5630 c-3 -6 1 -7 9 -4 18 7 21 14 7 14 -6 0 -13 -4 -16 -10z"/>
<path d="M2359 5623 c-13 -17 -13 -17 6 -3 11 8 22 16 24 17 2 2 0 3 -6 3 -6
0 -17 -8 -24 -17z"/>
<path d="M4730 5636 c0 -2 7 -7 16 -10 8 -3 12 -2 9 4 -6 10 -25 14 -25 6z"/>
<path d="M6835 5630 c-3 -6 1 -7 9 -4 18 7 21 14 7 14 -6 0 -13 -4 -16 -10z"/>
<path d="M6960 5636 c0 -2 7 -7 16 -10 8 -3 12 -2 9 4 -6 10 -25 14 -25 6z"/>
<path d="M910 5626 c0 -2 8 -10 18 -17 15 -13 16 -12 3 4 -13 16 -21 21 -21
13z"/>
<path d="M7036 5557 c3 -10 9 -15 12 -12 3 3 0 11 -7 18 -10 9 -11 8 -5 -6z"/>
<path d="M2301 5524 c0 -11 3 -14 6 -6 3 7 2 16 -1 19 -3 4 -6 -2 -5 -13z"/>
<path d="M4533 5490 c0 -25 2 -35 4 -22 2 12 2 32 0 45 -2 12 -4 2 -4 -23z"/>
<path d="M7052 5490 c0 -19 2 -27 5 -17 2 9 2 25 0 35 -3 9 -5 1 -5 -18z"/>
<path d="M4822 5490 c0 -14 2 -19 5 -12 2 6 2 18 0 25 -3 6 -5 1 -5 -13z"/>
<path d="M690 5451 c0 -6 4 -13 10 -16 6 -3 7 1 4 9 -7 18 -14 21 -14 7z"/>
<path d="M4806 5443 c-6 -14 -5 -15 5 -6 7 7 10 15 7 18 -3 3 -9 -2 -12 -12z"/>
<path d="M6770 5426 c0 -2 8 -10 18 -17 15 -13 16 -12 3 4 -13 16 -21 21 -21
13z"/>
<path d="M730 5395 c13 -14 26 -25 28 -25 3 0 -5 11 -18 25 -13 14 -26 25 -28
25 -3 0 5 -11 18 -25z"/>
<path d="M939 5393 c-13 -16 -12 -17 4 -4 16 13 21 21 13 21 -2 0 -10 -8 -17
-17z"/>
<path d="M2326 5393 c4 -13 -11 -41 -42 -82 -47 -63 -53 -93 -10 -52 13 12 38
44 54 71 29 47 30 49 12 65 -17 16 -18 16 -14 -2z"/>
<path d="M2542 5388 c-12 -12 34 -91 79 -134 44 -42 47 -21 4 32 -21 26 -46
62 -55 80 -12 23 -20 30 -28 22z"/>
<path d="M4756 5375 c-19 -15 -19 -16 4 -65 22 -48 40 -65 40 -37 0 6 -9 31
-19 53 -14 31 -16 45 -8 53 16 16 6 13 -17 -4z"/>
<path d="M6970 5369 c-19 -11 -28 -19 -19 -19 9 0 27 9 40 20 29 23 25 23 -21
-1z"/>
<path d="M4572 5326 c-12 -28 -22 -57 -22 -63 0 -27 18 -11 40 36 14 32 30 51
43 53 16 2 14 5 -9 14 -29 10 -30 9 -52 -40z"/>
<path d="M868 5353 c7 -3 16 -2 19 1 4 3 -2 6 -13 5 -11 0 -14 -3 -6 -6z"/>
<path d="M830 5305 c0 -25 5 -45 10 -45 6 0 10 20 10 45 0 25 -4 45 -10 45 -5
0 -10 -20 -10 -45z"/>
<path d="M6897 5330 c8 -31 20 -33 25 -5 4 19 1 25 -12 25 -13 0 -17 -6 -13
-20z"/>
<path d="M6850 5155 c0 -63 4 -105 10 -105 6 0 10 22 10 49 0 60 25 97 58 87
20 -7 22 -14 22 -72 0 -50 3 -64 15 -64 12 0 15 14 15 68 0 76 -9 92 -55 92
-17 0 -36 -5 -43 -12 -9 -9 -12 -4 -12 25 0 20 -4 37 -10 37 -6 0 -10 -42 -10
-105z"/>
<path d="M777 5203 c-4 -3 -7 -42 -7 -85 0 -61 3 -78 15 -78 10 0 15 16 17 61
3 65 19 88 52 76 12 -5 16 -20 16 -72 0 -51 3 -65 15 -65 12 0 15 14 15 68 0
57 -4 72 -21 87 -17 16 -25 17 -49 8 -17 -6 -32 -7 -37 -2 -5 5 -12 6 -16 2z"/>
<path d="M2097 5192 c-21 -23 -21 -32 -3 -32 8 0 17 7 20 16 9 24 71 15 71
-11 0 -14 -8 -21 -25 -23 -55 -7 -80 -23 -80 -53 0 -39 35 -56 80 -41 17 6 37
9 45 6 12 -5 15 6 15 63 0 40 -5 74 -12 81 -19 19 -92 15 -111 -6z m93 -90 c0
-37 -54 -58 -78 -29 -19 22 8 45 56 46 15 1 22 -5 22 -17z"/>
<path d="M2710 5124 c0 -64 3 -85 13 -82 7 3 14 30 17 68 5 58 7 65 29 70 14
3 26 11 29 18 5 16 -40 16 -56 0 -9 -9 -12 -9 -12 0 0 7 -4 12 -10 12 -6 0
-10 -35 -10 -86z"/>
<path d="M4453 5195 c-46 -32 -37 -126 14 -146 33 -12 79 -3 87 18 9 23 -1 28
-19 9 -23 -22 -51 -20 -69 6 -9 12 -16 26 -16 30 0 5 27 8 60 8 65 0 67 3 46
55 -13 30 -20 35 -48 35 -19 0 -43 -7 -55 -15z m71 -11 c9 -3 16 -15 16 -25 0
-16 -8 -19 -46 -19 -33 0 -43 3 -38 13 22 37 35 44 68 31z"/>
<path d="M4800 5195 c0 -8 11 -44 25 -81 26 -68 22 -104 -10 -104 -8 0 -15 -4
-15 -10 0 -5 11 -10 25 -10 28 0 41 20 85 140 22 60 26 80 16 80 -8 0 -24 -28
-37 -65 l-23 -66 -24 66 c-23 61 -42 84 -42 50z"/>
<path d="M2800 5058 c0 -18 37 -75 91 -139 22 -26 39 -52 39 -59 0 -10 3 -10
15 0 13 11 12 15 -4 39 -55 74 -141 172 -141 159z"/>
<path d="M1991 4950 c-32 -42 -58 -67 -64 -63 -7 3 -3 -3 7 -15 19 -22 19 -22
30 -2 6 11 32 46 58 78 42 52 49 72 29 72 -4 0 -30 -31 -60 -70z"/>
<path d="M4925 5008 c-3 -9 3 -34 15 -58 l22 -42 -38 -39 c-33 -34 -38 -46
-42 -97 -5 -73 11 -108 69 -148 60 -41 138 -41 198 0 54 38 71 71 71 140 0 48
-4 60 -32 92 -45 51 -108 78 -162 70 l-42 -7 -26 53 c-19 40 -28 49 -33 36z
m185 -148 c22 -11 45 -30 51 -42 28 -53 2 -144 -48 -167 -13 -6 -44 -11 -68
-11 -121 0 -164 158 -60 217 49 28 75 29 125 3z"/>
<path d="M4387 4955 c-15 -30 -32 -55 -39 -56 -7 0 -2 -5 11 -10 13 -5 24 -8
25 -7 1 2 13 28 28 59 24 52 26 69 8 69 -3 0 -18 -25 -33 -55z"/>
<path d="M829 4951 c-3 -41 -1 -51 11 -51 12 0 15 9 12 43 -6 62 -19 67 -23 8z"/>
<path d="M6898 4950 c-3 -48 -2 -50 22 -49 14 0 19 3 13 6 -8 3 -13 23 -13 49
0 60 -17 56 -22 -6z"/>
<path d="M1838 4903 c6 -2 18 -2 25 0 6 3 1 5 -13 5 -14 0 -19 -2 -12 -5z"/>
<path d="M3028 4903 c6 -2 18 -2 25 0 6 3 1 5 -13 5 -14 0 -19 -2 -12 -5z"/>
<path d="M4298 4903 c6 -2 18 -2 25 0 6 3 1 5 -13 5 -14 0 -19 -2 -12 -5z"/>
<path d="M763 4883 c-10 -10 -14 -15 -8 -11 6 4 22 12 36 17 15 6 18 10 8 10
-9 1 -25 -7 -36 -16z"/>
<path d="M4234 4884 c-18 -14 -18 -14 6 -3 31 14 36 19 24 19 -6 0 -19 -7 -30
-16z"/>
<path d="M939 4852 c20 -20 38 -36 40 -34 6 3 -61 72 -70 72 -4 0 9 -17 30
-38z"/>
<path d="M1749 4863 c-13 -16 -12 -17 4 -4 16 13 21 21 13 21 -2 0 -10 -8 -17
-17z"/>
<path d="M3120 4876 c0 -2 8 -10 18 -17 15 -13 16 -12 3 4 -13 16 -21 21 -21
13z"/>
<path d="M1710 4819 c-6 -11 -10 -27 -8 -35 2 -8 8 1 14 20 12 40 10 46 -6 15z"/>
<path d="M4436 4827 c3 -10 9 -15 12 -12 3 3 0 11 -7 18 -10 9 -11 8 -5 -6z"/>
<path d="M2891 4794 c0 -11 3 -14 6 -6 3 7 2 16 -1 19 -3 4 -6 -2 -5 -13z"/>
<path d="M3181 4794 c0 -11 3 -14 6 -6 3 7 2 16 -1 19 -3 4 -6 -2 -5 -13z"/>
<path d="M983 4760 c0 -25 2 -35 4 -22 2 12 2 32 0 45 -2 12 -4 2 -4 -23z"/>
<path d="M4152 4760 c0 -19 2 -27 5 -17 2 9 2 25 0 35 -3 9 -5 1 -5 -18z"/>
<path d="M4453 4755 c0 -22 2 -30 4 -17 2 12 2 30 0 40 -3 9 -5 -1 -4 -23z"/>
<path d="M7052 4760 c0 -19 2 -27 5 -17 2 9 2 25 0 35 -3 9 -5 1 -5 -18z"/>
<path d="M1702 4730 c0 -14 2 -19 5 -12 2 6 2 18 0 25 -3 6 -5 1 -5 -13z"/>
<path d="M3181 4724 c0 -11 3 -14 6 -6 3 7 2 16 -1 19 -3 4 -6 -2 -5 -13z"/>
<path d="M691 4719 c-1 -9 7 -25 17 -36 9 -10 14 -14 10 -8 -4 6 -12 22 -17
36 -6 15 -10 18 -10 8z"/>
<path d="M4436 4693 c-6 -14 -5 -15 5 -6 7 7 10 15 7 18 -3 3 -9 -2 -12 -12z"/>
<path d="M7036 4693 c-6 -14 -5 -15 5 -6 7 7 10 15 7 18 -3 3 -9 -2 -12 -12z"/>
<path d="M1976 4683 c-6 -14 -5 -15 5 -6 7 7 10 15 7 18 -3 3 -9 -2 -12 -12z"/>
<path d="M949 4663 c-13 -16 -12 -17 4 -4 9 7 17 15 17 17 0 8 -8 3 -21 -13z"/>
<path d="M1720 4676 c0 -2 8 -10 18 -17 15 -13 16 -12 3 4 -13 16 -21 21 -21
13z"/>
<path d="M1746 4583 c-28 -58 -32 -73 -16 -73 5 0 22 24 36 53 15 28 31 55 36
58 5 3 1 9 -10 11 -15 4 -24 -5 -46 -49z"/>
<path d="M1913 4633 c-9 -3 -3 -23 18 -66 37 -74 37 -73 48 -61 13 12 -50 132
-66 127z"/>
<path d="M4360 4630 c-9 -6 -10 -10 -3 -10 6 0 15 5 18 10 8 12 4 12 -15 0z"/>
<path d="M6800 4580 c-19 -38 -26 -61 -19 -65 13 -8 9 -13 46 57 24 44 27 58
17 62 -9 4 -24 -15 -44 -54z"/>
<path d="M6974 4633 c-12 -4 41 -116 58 -122 7 -2 9 3 4 15 -5 11 -15 38 -23
61 -16 46 -22 53 -39 46z"/>
<path d="M818 4613 c6 -2 12 -14 12 -26 1 -22 1 -22 12 -2 6 11 16 23 22 27 6
4 -5 7 -24 7 -19 0 -29 -3 -22 -6z"/>
<path d="M1833 4613 c9 -2 25 -2 35 0 9 3 1 5 -18 5 -19 0 -27 -2 -17 -5z"/>
<path d="M3018 4613 c7 -2 12 -22 12 -44 0 -58 27 -53 32 6 3 44 3 45 -27 44
-16 0 -24 -3 -17 -6z"/>
<path d="M4278 4613 c6 -2 12 -22 12 -43 0 -21 5 -42 10 -45 6 -4 10 11 10 39
0 26 5 46 13 49 6 3 -4 5 -23 5 -19 0 -29 -2 -22 -5z"/>
<path d="M6888 4613 c12 -2 30 -2 40 0 9 3 -1 5 -23 4 -22 0 -30 -2 -17 -4z"/>
<path d="M870 4496 c0 -30 -2 -33 -25 -28 -14 2 -36 -3 -50 -12 -21 -14 -25
-25 -25 -61 0 -62 24 -85 85 -83 l45 2 0 108 c0 89 -3 108 -15 108 -10 0 -15
-10 -15 -34z m1 -73 c18 -49 -21 -112 -54 -85 -21 18 -29 56 -17 86 13 37 57
36 71 -1z"/>
<path d="M1600 4411 l0 -108 54 -2 c68 -1 89 19 89 84 0 57 -22 77 -75 71 -37
-4 -38 -3 -38 30 0 24 -5 34 -15 34 -12 0 -15 -19 -15 -109z m112 4 c14 -30 2
-72 -24 -89 -38 -24 -69 29 -54 90 9 35 62 34 78 -1z"/>
<path d="M2080 4487 c0 -31 -2 -33 -32 -29 -50 5 -73 -17 -73 -71 0 -64 23
-87 86 -85 l49 1 0 108 c0 90 -3 109 -15 109 -10 0 -15 -10 -15 -33z m-5 -107
c0 -48 -3 -55 -21 -58 -44 -6 -69 52 -43 99 7 14 19 19 37 17 26 -3 27 -6 27
-58z"/>
<path d="M2995 4445 c-60 -59 3 -168 77 -134 29 13 48 47 48 85 0 32 -42 74
-75 74 -14 0 -37 -11 -50 -25z m89 -27 c14 -40 -3 -82 -34 -86 -29 -5 -50 21
-50 59 0 59 66 79 84 27z"/>
<path d="M4260 4460 c-8 -5 -23 -7 -32 -4 -16 5 -18 -3 -18 -75 0 -45 4 -81 9
-81 4 0 11 30 14 67 7 66 18 85 47 80 11 -2 16 -20 18 -75 4 -95 26 -95 30 1
2 53 6 67 21 72 41 13 51 -3 51 -77 0 -51 3 -69 13 -66 7 3 13 28 15 66 2 51
0 64 -18 82 -16 16 -28 20 -43 15 -28 -9 -58 -10 -77 -2 -8 4 -22 2 -30 -3z"/>
<path d="M6688 4454 c-25 -13 -28 -20 -28 -64 0 -41 4 -52 26 -69 15 -12 35
-21 46 -21 25 0 78 52 59 58 -8 3 -18 -3 -23 -12 -17 -30 -78 -14 -78 21 0 9
17 13 55 13 51 0 55 2 55 23 0 28 -39 67 -66 67 -10 -1 -31 -8 -46 -16z m80
-26 c3 -15 -4 -18 -37 -18 -43 0 -50 7 -29 28 18 18 62 11 66 -10z"/>
<path d="M7045 4445 c-62 -61 4 -168 84 -136 80 34 57 161 -29 161 -19 0 -40
-9 -55 -25z m89 -11 c35 -35 12 -104 -34 -104 -19 0 -33 7 -40 19 -24 45 -2
101 40 101 10 0 26 -7 34 -16z"/>
<path d="M6627 4230 c-24 -42 -25 -42 -89 -43 -53 -2 -71 -7 -100 -29 -113
-86 -86 -255 47 -301 31 -11 41 -20 43 -40 4 -36 22 -34 22 2 0 24 5 29 31 35
132 26 173 212 66 298 l-22 17 23 43 c30 57 12 73 -21 18z m-27 -105 c77 -40
79 -161 4 -210 -63 -41 -141 -15 -178 59 -16 32 -17 44 -7 76 23 78 108 113
181 75z"/>
<path d="M7158 4254 c-3 -3 6 -26 20 -51 22 -40 23 -48 12 -67 l-13 -21 24 20
c13 11 26 21 27 22 6 3 -51 103 -58 103 -4 0 -9 -3 -12 -6z"/>
<path d="M830 4221 c0 -24 -5 -29 -32 -35 -41 -8 -94 -49 -114 -88 -21 -40
-21 -116 -1 -155 20 -37 70 -81 103 -89 43 -11 120 2 153 25 98 70 90 225 -13
286 -24 14 -50 25 -59 25 -12 0 -17 9 -17 30 0 17 -4 30 -10 30 -5 0 -10 -13
-10 -29z m70 -96 c108 -56 60 -228 -63 -228 -48 0 -86 27 -111 77 -16 32 -17
44 -7 76 23 78 108 113 181 75z"/>
<path d="M4298 4244 c-5 -4 -8 -22 -8 -40 0 -23 -5 -34 -17 -36 -10 -2 4 -4
32 -4 29 -1 41 2 30 6 -14 5 -22 19 -25 44 -3 21 -8 34 -12 30z"/>
<path d="M1559 4201 c-14 -33 -21 -39 -40 -35 -16 3 -12 0 10 -10 18 -9 34
-16 35 -16 1 0 2 9 3 20 1 11 8 34 17 50 10 21 11 30 3 30 -7 0 -19 -18 -28
-39z"/>
<path d="M2100 4233 c1 -4 11 -27 23 -50 14 -27 26 -40 34 -35 9 6 6 18 -10
46 -20 36 -48 59 -47 39z"/>
<path d="M3030 4206 c0 -25 -5 -36 -17 -39 -10 -2 0 -4 23 -4 23 -1 52 -6 65
-12 23 -11 23 -11 5 3 -11 9 -26 16 -33 16 -8 0 -13 13 -13 35 0 24 -5 35 -15
35 -10 0 -15 -10 -15 -34z"/>
<path d="M1438 4163 c7 -3 16 -2 19 1 4 3 -2 6 -13 5 -11 0 -14 -3 -6 -6z"/>
<path d="M2248 4163 c7 -3 16 -2 19 1 4 3 -2 6 -13 5 -11 0 -14 -3 -6 -6z"/>
<path d="M7248 4163 c7 -3 16 -2 19 1 4 3 -2 6 -13 5 -11 0 -14 -3 -6 -6z"/>
<path d="M7298 4163 c7 -3 16 -2 19 1 4 3 -2 6 -13 5 -11 0 -14 -3 -6 -6z"/>
<path d="M2965 4150 c-3 -6 1 -7 9 -4 18 7 21 14 7 14 -6 0 -13 -4 -16 -10z"/>
<path d="M4212 4133 c-24 -24 -24 -25 -2 -8 42 33 44 35 37 35 -4 0 -19 -12
-35 -27z"/>
<path d="M1364 4118 l-29 -33 33 29 c30 28 37 36 29 36 -2 0 -16 -15 -33 -32z"/>
<path d="M2109 4123 c-13 -16 -12 -17 4 -4 9 7 17 15 17 17 0 8 -8 3 -21 -13z"/>
<path d="M2929 4123 c-13 -16 -12 -17 4 -4 16 13 21 21 13 21 -2 0 -10 -8 -17
-17z"/>
<path d="M7385 4120 c10 -11 20 -20 23 -20 3 0 -3 9 -13 20 -10 11 -20 20 -23
20 -3 0 3 -9 13 -20z"/>
<path d="M3161 4100 c14 -31 19 -36 19 -24 0 6 -7 19 -16 30 -14 18 -14 18 -3
-6z"/>
<path d="M4426 4095 c24 -39 24 -40 24 -28 0 6 -9 21 -21 34 l-20 24 17 -30z"/>
<path d="M7156 4103 c-6 -14 -5 -15 5 -6 7 7 10 15 7 18 -3 3 -9 -2 -12 -12z"/>
<path d="M2341 4093 c7 -12 15 -20 18 -17 3 2 -3 12 -13 22 -17 16 -18 16 -5
-5z"/>
<path d="M4163 4075 c-3 -9 -3 -18 -1 -21 3 -3 8 4 11 16 6 23 -1 27 -10 5z"/>
<path d="M2363 4020 c0 -25 2 -35 4 -22 2 12 2 32 0 45 -2 12 -4 2 -4 -23z"/>
<path d="M4452 4020 c0 -19 2 -27 5 -17 2 9 2 25 0 35 -3 9 -5 1 -5 -18z"/>
<path d="M7132 4020 c0 -19 2 -27 5 -17 2 9 2 25 0 35 -3 9 -5 1 -5 -18z"/>
<path d="M1622 4020 c0 -14 2 -19 5 -12 2 6 2 18 0 25 -3 6 -5 1 -5 -13z"/>
<path d="M4152 4020 c0 -14 2 -19 5 -12 2 6 2 18 0 25 -3 6 -5 1 -5 -13z"/>
<path d="M7431 4024 c0 -11 3 -14 6 -6 3 7 2 16 -1 19 -3 4 -6 -2 -5 -13z"/>
<path d="M3178 3985 c-3 -11 -9 -29 -13 -40 -3 -11 1 -7 10 8 9 16 15 33 12
40 -2 6 -6 3 -9 -8z"/>
<path d="M1607 3971 c-4 -17 -3 -21 5 -13 5 5 8 16 6 23 -3 8 -7 3 -11 -10z"/>
<path d="M1340 3953 c0 -6 8 -17 18 -24 16 -13 16 -13 2 6 -8 11 -16 22 -17
24 -2 2 -3 0 -3 -6z"/>
<path d="M4170 3953 c0 -6 8 -17 18 -24 16 -13 16 -13 2 6 -8 11 -16 22 -17
24 -2 2 -3 0 -3 -6z"/>
<path d="M2105 3922 c11 -13 29 -28 40 -34 21 -11 18 -8 -30 32 -29 24 -29 24
-10 2z"/>
<path d="M2925 3920 c10 -11 20 -20 23 -20 3 0 -3 9 -13 20 -10 11 -20 20 -23
20 -3 0 3 -9 13 -20z"/>
<path d="M7379 3913 l-24 -28 28 24 c15 14 27 26 27 28 0 8 -8 1 -31 -24z"/>
<path d="M3120 3899 c-22 -18 -22 -19 -3 -10 12 6 25 16 28 21 9 15 3 12 -25
-11z"/>
<path d="M2296 3895 c-11 -8 -15 -15 -9 -15 6 0 16 7 23 15 16 19 11 19 -14 0z"/>
<path d="M1397 3889 c7 -7 15 -10 18 -7 3 3 -2 9 -12 12 -14 6 -15 5 -6 -5z"/>
<path d="M7214 3886 c11 -9 27 -16 35 -15 14 0 14 1 1 6 -8 3 -24 10 -35 15
-20 9 -20 9 -1 -6z"/>
<path d="M2178 3873 c7 -3 16 -2 19 1 4 3 -2 6 -13 5 -11 0 -14 -3 -6 -6z"/>
<path d="M2998 3873 c7 -3 16 -2 19 1 4 3 -2 6 -13 5 -11 0 -14 -3 -6 -6z"/>
<path d="M7308 3873 c7 -3 16 -2 19 1 4 3 -2 6 -13 5 -11 0 -14 -3 -6 -6z"/>
<path d="M1466 3855 c4 -8 10 -15 15 -15 5 0 9 7 9 15 0 8 -7 15 -15 15 -9 0
-12 -6 -9 -15z"/>
<path d="M2210 3829 c0 -52 24 -48 28 4 2 28 -1 37 -12 37 -12 0 -16 -11 -16
-41z"/>
<path d="M3030 3830 c0 -29 4 -40 15 -40 11 0 15 11 15 40 0 29 -4 40 -15 40
-11 0 -15 -11 -15 -40z"/>
<path d="M4290 3836 c0 -49 17 -54 22 -6 2 28 0 40 -9 40 -8 0 -13 -13 -13
-34z"/>
<path d="M7270 3826 c0 -25 5 -48 10 -51 6 -4 10 13 10 44 0 28 -4 51 -10 51
-5 0 -10 -20 -10 -44z"/>
<path d="M1470 3675 c0 -89 3 -116 13 -112 8 2 12 34 12 112 0 78 -4 110 -12
113 -10 3 -13 -24 -13 -113z"/>
<path d="M2174 3709 c-28 -31 -25 -96 5 -120 30 -24 83 -25 104 -1 10 10 17
22 17 25 0 13 -28 7 -40 -8 -18 -21 -49 -15 -68 13 l-14 22 67 0 67 0 -7 28
c-10 43 -34 62 -75 62 -25 0 -43 -7 -56 -21z m90 -15 c26 -26 18 -34 -34 -34
-27 0 -50 4 -50 9 0 16 31 41 50 41 10 0 26 -7 34 -16z"/>
<path d="M2940 3648 c0 -61 3 -78 15 -78 10 0 15 16 17 61 3 65 19 88 52 76
12 -5 16 -20 16 -72 0 -71 19 -92 21 -22 2 69 12 92 39 92 24 0 25 -3 28 -67
2 -52 6 -68 17 -68 12 0 15 14 15 61 0 76 -12 99 -50 99 -16 0 -32 -5 -35 -10
-5 -7 -11 -8 -19 -1 -6 5 -35 9 -64 9 l-52 -1 0 -79z"/>
<path d="M4260 3710 c-46 -46 -11 -140 53 -140 48 0 72 37 67 100 -4 57 -78
82 -120 40z m88 -32 c11 -23 11 -33 0 -55 -26 -55 -78 -33 -78 32 0 59 53 74
78 23z"/>
<path d="M6480 3650 c0 -63 3 -80 15 -80 10 0 15 16 17 61 5 112 68 104 68 -8
0 -43 3 -53 16 -53 15 0 16 9 11 66 -4 37 -12 73 -18 80 -14 17 -61 18 -77 2
-9 -9 -12 -9 -12 0 0 7 -4 12 -10 12 -6 0 -10 -33 -10 -80z"/>
<path d="M7230 3662 c0 -74 10 -92 50 -92 14 0 31 5 38 12 9 9 12 9 12 0 0 -7
7 -12 15 -12 12 0 15 16 15 80 0 64 -3 80 -15 80 -11 0 -15 -13 -15 -54 0 -58
-18 -90 -49 -84 -12 3 -17 18 -19 71 -2 51 -6 67 -17 67 -12 0 -15 -15 -15
-68z"/>
<path d="M6530 3485 c0 -33 -3 -35 -44 -46 -170 -43 -150 -292 26 -324 66 -12
150 32 183 96 19 35 19 100 1 142 -19 44 -53 73 -103 86 -40 11 -43 14 -43 46
0 19 -4 35 -10 35 -5 0 -10 -16 -10 -35z m60 -90 c98 -51 92 -183 -10 -225
-42 -17 -93 -5 -129 32 -42 43 -48 78 -21 132 32 67 99 93 160 61z"/>
<path d="M2210 3470 c0 -29 4 -40 15 -40 11 0 15 11 15 40 0 29 -4 40 -15 40
-11 0 -15 -11 -15 -40z"/>
<path d="M3030 3480 c0 -26 -5 -30 -42 -41 -75 -19 -118 -76 -118 -154 0 -56
17 -92 64 -132 106 -93 276 -12 276 132 0 76 -43 135 -110 152 -30 8 -35 14
-38 41 -4 42 -32 44 -32 2z m91 -106 c57 -54 58 -122 2 -175 -29 -29 -41 -34
-83 -34 -42 0 -54 5 -83 34 -19 18 -37 44 -40 58 -10 52 28 122 78 144 35 15
95 3 126 -27z"/>
<path d="M4290 3470 c0 -26 5 -40 13 -40 9 0 11 12 9 40 -2 22 -8 40 -13 40
-5 0 -9 -18 -9 -40z"/>
<path d="M7270 3470 c0 -22 5 -40 10 -40 6 0 10 18 10 40 0 22 -4 40 -10 40
-5 0 -10 -18 -10 -40z"/>
<path d="M1468 3465 c-3 -24 0 -35 9 -35 8 0 13 13 13 35 0 19 -4 35 -9 35 -5
0 -11 -16 -13 -35z"/>
<path d="M2280 3420 c8 -5 20 -10 25 -10 6 0 3 5 -5 10 -8 5 -19 10 -25 10 -5
0 -3 -5 5 -10z"/>
<path d="M4340 3426 c0 -2 9 -6 20 -9 11 -3 18 -1 14 4 -5 9 -34 13 -34 5z"/>
<path d="M7215 3420 c-3 -6 1 -7 9 -4 18 7 21 14 7 14 -6 0 -13 -4 -16 -10z"/>
<path d="M4214 3404 c-18 -14 -18 -15 4 -4 12 6 22 13 22 15 0 8 -5 6 -26 -11z"/>
<path d="M4405 3390 c10 -11 20 -20 23 -20 3 0 -3 9 -13 20 -10 11 -20 20 -23
20 -3 0 3 -9 13 -20z"/>
<path d="M7169 3383 l-24 -28 28 24 c15 14 27 26 27 28 0 8 -8 1 -31 -24z"/>
<path d="M1359 3383 c-13 -16 -12 -17 4 -4 9 7 17 15 17 17 0 8 -8 3 -21 -13z"/>
<path d="M2095 3370 c-10 -11 -16 -22 -14 -24 2 -2 12 7 22 20 22 29 17 32 -8
4z"/>
<path d="M2320 3386 c0 -2 8 -10 18 -17 15 -13 16 -12 3 4 -13 16 -21 21 -21
13z"/>
<path d="M7400 3370 c6 -11 13 -20 16 -20 2 0 0 9 -6 20 -6 11 -13 20 -16 20
-2 0 0 -9 6 -20z"/>
<path d="M4436 3347 c3 -10 9 -15 12 -12 3 3 0 11 -7 18 -10 9 -11 8 -5 -6z"/>
<path d="M2363 3280 c0 -25 2 -35 4 -22 2 12 2 32 0 45 -2 12 -4 2 -4 -23z"/>
<path d="M7133 3280 c0 -25 2 -35 4 -22 2 12 2 32 0 45 -2 12 -4 2 -4 -23z"/>
<path d="M4450 3273 c-3 -23 -2 -39 3 -34 5 5 7 24 5 42 -3 33 -4 33 -8 -8z"/>
<path d="M1622 3275 c0 -16 2 -22 5 -12 2 9 2 23 0 30 -3 6 -5 -1 -5 -18z"/>
<path d="M4152 3280 c0 -14 2 -19 5 -12 2 6 2 18 0 25 -3 6 -5 1 -5 -13z"/>
<path d="M7432 3280 c0 -14 2 -19 5 -12 2 6 2 18 0 25 -3 6 -5 1 -5 -13z"/>
<path d="M7410 3220 c-6 -11 -8 -20 -6 -20 3 0 10 9 16 20 6 11 8 20 6 20 -3
0 -10 -9 -16 -20z"/>
<path d="M2080 3223 c0 -6 8 -17 18 -24 16 -13 16 -13 2 6 -8 11 -16 22 -17
24 -2 2 -3 0 -3 -6z"/>
<path d="M1365 3180 c10 -11 20 -20 23 -20 3 0 -3 9 -13 20 -10 11 -20 20 -23
20 -3 0 3 -9 13 -20z"/>
<path d="M4404 3178 l-19 -23 23 19 c12 11 22 21 22 23 0 8 -8 2 -26 -19z"/>
<path d="M7175 3180 c10 -11 20 -20 23 -20 3 0 -3 9 -13 20 -10 11 -20 20 -23
20 -3 0 3 -9 13 -20z"/>
<path d="M2144 3156 c11 -9 24 -16 30 -16 12 0 7 5 -24 19 -24 11 -24 11 -6
-3z"/>
<path d="M1408 3148 c5 -5 16 -8 23 -6 8 3 3 7 -10 11 -17 4 -21 3 -13 -5z"/>
<path d="M2280 3150 c-9 -6 -10 -10 -3 -10 6 0 15 5 18 10 8 12 4 12 -15 0z"/>
<path d="M4355 3150 c-16 -7 -17 -9 -3 -9 9 -1 20 4 23 9 7 11 7 11 -20 0z"/>
<path d="M1458 3133 c7 -2 12 -22 12 -44 0 -21 5 -39 10 -39 6 0 10 18 10 39
0 22 5 42 13 44 6 3 -4 5 -23 5 -19 0 -29 -2 -22 -5z"/>
<path d="M2197 3132 c6 -4 13 -25 15 -46 l3 -39 17 47 17 46 -32 0 c-18 0 -27
-4 -20 -8z"/>
<path d="M4288 3098 c6 -61 22 -72 22 -16 0 28 5 48 13 51 6 3 1 6 -13 6 -24
1 -25 -2 -22 -41z"/>
<path d="M7268 3095 c5 -55 22 -60 22 -6 0 22 5 42 13 44 6 3 1 6 -13 6 -24 1
-25 -2 -22 -44z"/>
<path d="M2270 3021 c0 -28 -2 -29 -34 -24 -48 8 -76 -22 -76 -82 0 -63 24
-85 90 -82 l50 2 0 108 c0 88 -3 107 -15 107 -10 0 -15 -10 -15 -29z m-20 -51
c10 -5 21 -24 25 -40 12 -57 -42 -104 -75 -65 -19 22 -15 87 6 102 21 16 21
16 44 3z"/>
<path d="M1435 2975 c-28 -27 -34 -89 -12 -118 18 -26 81 -33 112 -13 14 9 25
21 25 26 0 15 -26 12 -40 -5 -25 -30 -80 -12 -80 27 0 15 9 18 60 18 57 0 60
1 60 24 0 30 -43 66 -77 66 -13 0 -35 -11 -48 -25z m76 -5 c36 -20 23 -40 -26
-40 -48 0 -55 9 -29 34 18 19 28 20 55 6z"/>
<path d="M4298 2993 c-15 -4 -18 -17 -18 -84 0 -51 4 -78 10 -74 6 3 10 33 10
66 0 44 4 61 15 64 51 16 50 16 35 25 -16 10 -24 11 -52 3z"/>
<path d="M7247 2988 c-65 -50 -24 -171 52 -151 14 4 21 1 21 -9 0 -34 -55 -53
-66 -23 -7 16 -34 21 -34 6 0 -19 32 -41 61 -41 55 0 69 28 69 135 0 57 -4 95
-10 95 -5 0 -10 -5 -10 -10 0 -7 -6 -7 -19 0 -26 13 -44 13 -64 -2z m53 -18
c36 -20 32 -102 -6 -117 -21 -8 -54 30 -54 61 0 20 25 66 36 66 3 0 14 -4 24
-10z"/>
<path d="M1470 2752 c0 -22 -6 -34 -17 -38 -61 -18 -104 -49 -123 -88 -57
-120 17 -247 145 -245 61 1 74 5 119 46 41 38 61 96 52 148 -9 46 -77 122
-120 133 -22 6 -32 15 -34 33 -6 39 -22 47 -22 11z m60 -98 c63 -25 86 -94 55
-167 -19 -46 -40 -57 -112 -57 -52 0 -63 3 -87 29 -36 38 -47 108 -21 147 15
24 85 63 112 64 7 0 31 -7 53 -16z"/>
<path d="M2210 2746 c0 -31 -3 -36 -24 -36 -32 0 -86 -39 -109 -78 -25 -42
-26 -125 -4 -169 27 -50 72 -77 142 -81 56 -4 63 -2 106 32 51 38 69 76 69
140 0 63 -60 141 -116 152 -28 5 -33 11 -36 37 -4 45 -28 47 -28 3z m86 -102
c44 -30 58 -109 28 -167 -23 -43 -30 -47 -100 -47 -72 0 -106 21 -124 76 -14
41 -1 102 25 124 46 38 124 44 171 14z"/>
<path d="M4297 2774 c-13 -13 -8 -84 6 -84 9 0 12 12 9 38 -5 50 -6 54 -15 46z"/>
<path d="M7270 2700 c0 -5 5 -10 10 -10 6 0 10 5 10 10 0 6 -4 10 -10 10 -5 0
-10 -4 -10 -10z"/>
<path d="M7214 2674 c-19 -15 -19 -15 1 -6 11 5 27 12 35 15 13 5 13 6 -1 6
-8 1 -24 -6 -35 -15z"/>
<path d="M7308 2683 c7 -3 16 -2 19 1 4 3 -2 6 -13 5 -11 0 -14 -3 -6 -6z"/>
<path d="M4361 2677 c2 -1 13 -9 24 -17 19 -14 19 -14 6 3 -7 9 -18 17 -24 17
-6 0 -8 -1 -6 -3z"/>
<path d="M7360 2666 c0 -2 8 -10 18 -17 15 -13 16 -12 3 4 -13 16 -21 21 -21
13z"/>
<path d="M4430 2625 c0 -5 5 -17 10 -25 5 -8 10 -10 10 -5 0 6 -5 17 -10 25
-5 8 -10 11 -10 5z"/>
<path d="M4163 2605 c-3 -9 -3 -18 -1 -21 3 -3 8 4 11 16 6 23 -1 27 -10 5z"/>
<path d="M4453 2545 c0 -22 2 -30 4 -17 2 12 2 30 0 40 -3 9 -5 -1 -4 -23z"/>
<path d="M7133 2545 c0 -22 2 -30 4 -17 2 12 2 30 0 40 -3 9 -5 -1 -4 -23z"/>
<path d="M4152 2545 c0 -16 2 -22 5 -12 2 9 2 23 0 30 -3 6 -5 -1 -5 -18z"/>
<path d="M7431 2544 c0 -11 3 -14 6 -6 3 7 2 16 -1 19 -3 4 -6 -2 -5 -13z"/>
<path d="M4419 2453 c-13 -16 -12 -17 4 -4 9 7 17 15 17 17 0 8 -8 3 -21 -13z"/>
<path d="M7156 2457 c3 -10 9 -15 12 -12 3 3 0 11 -7 18 -10 9 -11 8 -5 -6z"/>
<path d="M7207 2419 c7 -7 15 -10 18 -7 3 3 -2 9 -12 12 -14 6 -15 5 -6 -5z"/>
<path d="M4273 2403 c13 -3 17 -15 17 -46 0 -23 5 -49 10 -57 7 -11 10 0 10
38 0 45 3 54 23 61 17 7 10 9 -28 8 -27 0 -42 -2 -32 -4z"/>
<path d="M7251 2403 c9 -2 20 -18 25 -36 l8 -32 3 32 c3 20 11 33 21 36 9 2
-3 3 -28 3 -25 0 -38 -1 -29 -3z"/>
<path d="M7220 2200 c0 -67 4 -110 10 -110 6 0 10 23 10 51 0 58 13 89 38 89
31 0 42 -22 42 -82 0 -32 4 -58 10 -58 6 0 10 30 10 69 0 80 -12 97 -65 88
-34 -6 -35 -5 -35 29 0 19 -4 34 -10 34 -6 0 -10 -43 -10 -110z"/>
<path d="M4240 2251 c0 -5 11 -33 24 -63 36 -81 38 -128 6 -128 -12 0 -20 -7
-20 -16 0 -10 7 -14 21 -12 17 2 30 26 65 113 50 127 47 115 33 115 -5 0 -23
-28 -38 -62 l-29 -62 -7 34 c-9 44 -33 90 -45 90 -6 0 -10 -4 -10 -9z"/>
<path d="M7270 2006 c0 -26 -5 -46 -12 -49 -7 -3 3 -5 22 -5 19 0 29 2 23 5
-7 2 -13 22 -13 43 0 21 -4 42 -10 45 -6 4 -10 -11 -10 -39z"/>
<path d="M4253 1968 c-111 -41 -152 -155 -91 -255 67 -112 244 -100 299 20 23
53 24 91 0 142 -23 51 -47 71 -107 94 -48 18 -50 18 -101 -1z m108 -53 c37
-20 69 -70 69 -110 0 -71 -76 -134 -146 -120 -43 8 -91 56 -99 99 -13 69 49
146 118 146 15 0 41 -7 58 -15z"/>
<path d="M7215 1940 c-3 -6 1 -7 9 -4 18 7 21 14 7 14 -6 0 -13 -4 -16 -10z"/>
<path d="M7169 1903 l-24 -28 28 24 c15 14 27 26 27 28 0 8 -8 1 -31 -24z"/>
<path d="M7410 1875 c0 -5 5 -17 10 -25 5 -8 10 -10 10 -5 0 6 -5 17 -10 25
-5 8 -10 11 -10 5z"/>
<path d="M7133 1805 c0 -22 2 -30 4 -17 2 12 2 30 0 40 -3 9 -5 -1 -4 -23z"/>
<path d="M7431 1804 c0 -11 3 -14 6 -6 3 7 2 16 -1 19 -3 4 -6 -2 -5 -13z"/>
<path d="M7411 1743 c-10 -26 -10 -27 4 -9 8 11 15 23 15 28 0 15 -7 8 -19
-19z"/>
<path d="M7175 1700 c10 -11 20 -20 23 -20 3 0 -3 9 -13 20 -10 11 -20 20 -23
20 -3 0 3 -9 13 -20z"/>
<path d="M7345 1679 c-16 -10 -25 -19 -19 -19 7 0 22 9 35 20 30 24 23 24 -16
-1z"/>
<path d="M7266 1645 c4 -8 10 -15 14 -15 4 0 10 7 14 15 4 10 -1 15 -14 15
-13 0 -18 -5 -14 -15z"/>
<path d="M7276 1565 c-4 -11 -12 -28 -18 -39 -7 -13 -7 -21 1 -25 5 -4 11 -36
13 -71 3 -59 5 -65 26 -68 12 -2 22 1 22 7 0 6 -7 11 -15 11 -12 0 -15 13 -15
60 0 47 3 60 15 60 8 0 15 5 15 10 0 6 -6 10 -14 10 -9 0 -16 13 -18 33 -3 27
-5 29 -12 12z"/>
<path d="M7268 1255 c-2 -31 1 -45 9 -45 9 0 13 16 13 45 0 25 -4 45 -9 45 -5
0 -11 -20 -13 -45z"/>
<path d="M7133 1070 c0 -25 2 -35 4 -22 2 12 2 32 0 45 -2 12 -4 2 -4 -23z"/>
<path d="M7431 1064 c0 -11 3 -14 6 -6 3 7 2 16 -1 19 -3 4 -6 -2 -5 -13z"/>
<path d="M7340 940 c-9 -6 -10 -10 -3 -10 6 0 15 5 18 10 8 12 4 12 -15 0z"/>
<path d="M7253 923 c12 -3 17 -15 17 -44 0 -21 5 -39 10 -39 6 0 10 18 10 39
0 29 5 41 18 44 9 3 -3 5 -28 5 -25 0 -37 -2 -27 -5z"/>
<path d="M7240 762 c-30 -24 -18 -47 36 -68 31 -12 44 -22 42 -33 -4 -22 -56
-27 -64 -7 -6 16 -34 23 -34 9 1 -30 51 -56 82 -44 63 24 59 71 -7 97 -25 9
-45 21 -45 26 0 16 31 21 56 8 30 -17 46 -3 20 16 -27 19 -59 18 -86 -4z"/>
<path d="M7270 531 c0 -25 -5 -31 -31 -36 -39 -9 -98 -61 -115 -102 -40 -95
17 -206 121 -234 110 -31 237 96 206 206 -5 19 -19 48 -31 65 -22 31 -86 70
-115 70 -10 0 -15 10 -15 30 0 17 -4 30 -10 30 -5 0 -10 -13 -10 -29z m81
-104 c39 -26 64 -84 55 -123 -9 -35 -65 -91 -100 -100 -68 -17 -146 52 -146
129 0 32 7 46 39 78 32 32 46 39 78 39 25 0 53 -9 74 -23z"/>
</g>
</svg>
