<?xml version="1.0" standalone="no"?>
<!DOCTYPE svg PUBLIC "-//W3C//DTD SVG 20010904//EN"
 "http://www.w3.org/TR/2001/REC-SVG-20010904/DTD/svg10.dtd">
<svg version="1.0" xmlns="http://www.w3.org/2000/svg"
 width="810.000000pt" height="450.000000pt" viewBox="0 0 810.000000 450.000000"
 preserveAspectRatio="xMidYMid meet">

<g transform="translate(0.000000,450.000000) scale(0.100000,-0.100000)"
fill="white" stroke="bold">
<path d="M1309 4487 c9 -12 29 -17 61 -17 32 0 52 5 61 17 13 15 12 16 -11 8
-14 -4 -36 -8 -50 -8 -14 0 -36 4 -50 8 -23 8 -24 7 -11 -8z"/>
<path d="M3280 4485 c8 -9 30 -15 60 -15 30 0 52 6 60 15 15 18 1 20 -35 3
-21 -9 -31 -9 -46 0 -10 7 -26 12 -35 12 -13 0 -14 -3 -4 -15z"/>
<path d="M3750 4485 c-11 -13 -8 -15 18 -15 24 0 30 4 26 15 -4 8 -12 15 -19
15 -7 0 -18 -7 -25 -15z"/>
<path d="M5504 4371 c-101 -46 -157 -139 -158 -265 -1 -89 2 -86 -91 -112 -33
-9 -79 -23 -103 -30 -23 -8 -51 -14 -62 -14 -10 0 -22 -4 -25 -10 -3 -5 -15
-10 -25 -10 -11 0 -39 -6 -62 -14 -24 -7 -72 -21 -108 -31 -36 -9 -73 -21 -82
-26 -10 -5 -24 -9 -32 -9 -7 0 -36 -7 -62 -15 -48 -14 -179 -52 -279 -80 -27
-8 -97 -28 -155 -45 -58 -17 -130 -38 -160 -46 -30 -9 -68 -20 -85 -25 -16 -4
-57 -16 -90 -25 -33 -9 -79 -23 -103 -30 -23 -8 -47 -14 -52 -14 -5 0 -28 20
-51 45 -106 115 -298 111 -405 -8 -38 -41 -74 -115 -74 -150 0 -41 3 -39 -185
-92 -33 -9 -71 -20 -85 -25 -14 -4 -54 -15 -90 -25 -36 -9 -73 -21 -82 -26
-10 -5 -24 -9 -33 -9 -8 0 -34 -6 -57 -14 -24 -7 -72 -21 -108 -31 -36 -9 -73
-21 -82 -26 -10 -5 -24 -9 -32 -9 -7 0 -36 -7 -62 -15 -27 -8 -105 -31 -174
-51 -69 -20 -147 -43 -175 -51 -136 -39 -215 -61 -277 -76 -25 -7 -50 -15 -54
-20 -4 -4 -15 -7 -25 -7 -10 0 -38 -6 -61 -14 -24 -8 -60 -18 -80 -21 -35 -7
-38 -5 -52 28 -18 43 -83 108 -134 133 -58 29 -183 26 -244 -5 -202 -103 -211
-389 -16 -501 29 -16 67 -30 84 -30 16 0 37 -6 46 -12 16 -13 17 -22 37 -343
7 -101 8 -104 9 -35 1 41 -3 139 -8 218 -5 79 -7 149 -4 157 3 7 20 15 37 18
18 3 44 9 58 12 24 6 70 -25 370 -242 189 -137 404 -291 477 -343 72 -52 132
-98 132 -103 0 -4 -115 -180 -257 -390 -141 -210 -319 -475 -396 -590 -76
-114 -143 -209 -148 -212 -5 -3 -21 1 -36 8 -15 8 -49 17 -75 21 -49 7 -57 16
-60 69 -1 22 -3 17 -7 -18 -6 -48 -7 -50 -41 -56 -75 -12 -150 -71 -186 -145
-22 -45 -27 -70 -27 -129 0 -119 50 -202 157 -257 58 -30 184 -30 242 0 66 34
101 69 131 130 52 107 33 236 -49 325 l-35 38 192 287 c106 158 285 424 398
592 127 190 210 305 221 305 8 0 134 -85 278 -189 798 -575 1032 -744 1347
-971 190 -138 374 -270 409 -294 l62 -44 0 -64 c0 -151 115 -271 269 -281 77
-5 130 10 194 56 58 41 93 100 109 178 13 72 22 84 59 84 15 0 30 4 33 9 3 4
27 11 53 15 26 3 61 10 78 16 38 12 180 47 265 66 36 8 83 19 105 24 22 4 76
18 120 30 44 12 98 25 120 30 22 5 67 16 100 24 33 8 92 22 130 31 90 22 126
30 205 50 36 9 82 19 102 22 36 5 37 4 63 -50 48 -103 137 -157 257 -157 82 0
153 30 204 86 55 59 69 100 69 194 0 102 -16 140 -86 209 l-47 47 117 349 c65
193 159 474 210 625 51 151 96 282 100 290 5 9 12 31 16 50 4 19 11 41 15 50
4 8 12 27 18 41 6 16 21 29 38 33 68 17 148 95 180 175 21 52 16 160 -10 213
-26 54 -90 117 -144 141 -66 29 -180 28 -244 -1 -26 -12 -50 -26 -53 -32 -14
-23 -53 -7 -111 48 -33 31 -96 89 -140 128 -206 184 -604 541 -644 578 -25 23
-110 100 -190 171 -80 71 -148 134 -152 140 -4 5 -4 21 0 35 14 51 6 154 -15
201 -24 55 -79 111 -133 139 -53 27 -187 28 -246 1z m244 -24 c94 -47 151
-155 138 -264 -8 -71 -35 -122 -87 -166 -109 -94 -259 -88 -361 14 -118 118
-96 316 45 405 75 49 182 53 265 11z m-364 -381 c14 -25 40 -55 57 -69 l31
-24 -11 -64 c-15 -84 -35 -194 -55 -299 -9 -47 -21 -110 -27 -140 -5 -30 -17
-91 -25 -135 -8 -44 -21 -114 -29 -155 -7 -41 -18 -100 -24 -130 -46 -238 -64
-335 -84 -460 -10 -59 -16 -75 -31 -78 -10 -2 -23 1 -29 7 -6 6 -46 11 -89 11
-79 0 -114 -11 -179 -53 l-27 -18 -228 197 c-325 279 -315 271 -573 493 -129
110 -239 201 -245 201 -12 0 26 -34 319 -286 563 -483 705 -605 711 -615 3 -6
-3 -20 -14 -32 -59 -62 -75 -215 -32 -300 45 -90 133 -152 232 -163 64 -7 63
-6 48 -84 -49 -257 -55 -298 -45 -288 5 5 14 45 21 90 18 113 50 263 58 277 4
6 15 11 24 11 25 0 92 38 128 71 l31 30 29 -23 c27 -21 257 -218 389 -333 33
-29 96 -84 141 -121 120 -103 637 -547 651 -560 9 -9 7 -22 -10 -55 -13 -26
-24 -71 -27 -109 l-5 -65 -70 -18 c-38 -10 -95 -25 -125 -32 -30 -7 -86 -20
-125 -29 -38 -10 -86 -21 -105 -26 -95 -24 -169 -42 -210 -50 -25 -5 -61 -14
-80 -19 -49 -14 -193 -50 -265 -66 -57 -13 -149 -35 -225 -55 -78 -20 -182
-40 -190 -35 -4 3 -11 20 -14 38 -9 51 -59 121 -109 156 -25 17 -50 31 -55 31
-6 0 -12 5 -14 12 -5 14 -138 12 -188 -4 -19 -6 -52 -22 -74 -35 -21 -14 -42
-21 -46 -16 -4 4 -19 40 -33 78 -14 39 -44 121 -66 183 -23 61 -59 163 -82
225 -97 270 -210 579 -219 602 -4 11 -22 61 -40 110 -18 50 -36 99 -40 110 -4
11 -22 61 -40 110 -17 50 -35 99 -40 110 -4 11 -22 61 -40 110 -17 50 -50 140
-72 200 -22 61 -58 160 -80 220 -22 61 -46 126 -53 145 -8 19 -28 76 -45 125
-18 50 -36 99 -40 110 -5 11 -19 49 -31 84 -22 61 -22 64 -4 74 44 24 106 93
130 142 30 64 34 170 10 228 -17 41 -11 49 55 61 19 4 44 11 55 15 11 5 49 17
85 26 36 10 84 24 108 31 23 8 51 14 62 14 10 0 22 5 25 10 3 6 15 10 25 10
11 0 39 6 62 14 24 7 70 21 103 31 33 9 74 21 90 26 17 4 57 16 90 25 33 9 96
27 140 40 44 13 114 33 155 44 89 26 119 35 183 55 26 8 56 15 67 15 10 0 22
5 25 10 3 6 14 10 24 10 18 0 75 16 166 45 22 8 43 14 47 14 3 1 18 -19 32
-43z m559 -35 c29 -27 102 -93 163 -147 169 -150 578 -517 584 -524 3 -3 70
-64 150 -135 80 -71 169 -152 198 -180 l54 -51 -25 -38 c-64 -93 -59 -227 12
-321 49 -65 119 -102 209 -111 34 -4 62 -11 62 -16 0 -12 -179 -550 -189 -568
-5 -9 -12 -31 -16 -50 -4 -19 -11 -41 -16 -50 -4 -8 -58 -166 -119 -350 -137
-411 -130 -393 -155 -384 -11 4 -61 9 -111 11 l-90 4 -84 252 c-46 139 -88
259 -92 267 -4 8 -28 78 -53 155 -26 77 -50 149 -55 160 -5 11 -41 117 -80
235 -39 118 -75 224 -80 235 -5 11 -38 108 -74 215 -131 391 -217 645 -226
665 -5 11 -38 108 -74 215 -36 107 -81 241 -101 298 -19 56 -35 106 -35 111 0
6 10 13 23 17 39 12 107 64 130 100 12 18 26 34 30 34 5 0 32 -22 60 -49z
m-334 -96 c35 -2 67 -7 72 -12 7 -8 45 -115 168 -483 29 -85 56 -164 61 -175
5 -11 43 -121 84 -245 68 -204 205 -603 219 -640 3 -8 38 -112 77 -230 39
-118 75 -224 80 -235 5 -11 29 -83 55 -160 25 -77 50 -147 54 -155 5 -9 12
-31 16 -50 4 -19 11 -41 16 -50 5 -8 36 -100 71 -204 45 -137 58 -191 49 -194
-6 -2 -32 -19 -57 -38 -24 -19 -46 -34 -49 -34 -3 0 -42 33 -88 73 -45 40
-192 167 -327 282 -135 115 -247 212 -250 215 -4 5 -422 365 -522 450 l-29 25
20 48 c48 112 18 250 -74 336 -48 45 -48 45 -24 146 5 22 14 69 20 105 6 36
15 85 20 110 28 144 41 214 53 285 17 98 45 246 56 300 14 69 40 207 50 275 6
36 15 81 20 100 5 19 14 64 21 100 15 82 15 81 47 69 15 -6 56 -12 91 -14z
m-1995 -170 c52 -22 120 -88 145 -140 28 -60 29 -166 1 -227 -46 -103 -130
-158 -240 -158 -153 0 -260 111 -260 271 0 110 55 199 155 248 49 25 147 27
199 6z m-374 -299 c0 -13 9 -46 21 -72 l20 -48 -202 -301 c-111 -165 -310
-461 -442 -659 -133 -197 -246 -360 -253 -363 -6 -2 -148 95 -315 216 -167
121 -317 229 -334 241 -45 32 -161 115 -239 172 l-69 50 37 35 c59 56 87 122
88 208 l0 72 111 33 c62 18 131 39 155 46 23 8 51 14 61 14 10 0 21 3 25 7 4
5 29 13 54 20 50 12 83 21 172 48 30 9 80 23 110 31 30 8 69 19 85 24 17 5 55
16 85 25 30 9 78 22 105 30 28 7 91 25 140 40 50 15 111 32 137 38 25 7 50 15
54 20 4 4 15 7 25 7 10 0 38 6 61 14 24 7 72 21 108 31 36 9 74 21 85 26 27
11 54 16 88 18 22 1 27 -3 27 -23z m90 -173 c45 -47 123 -74 207 -72 40 1 75
0 77 -2 2 -2 15 -35 29 -74 14 -38 51 -140 82 -225 31 -85 74 -202 95 -260 21
-58 57 -156 79 -217 98 -270 121 -333 151 -418 17 -49 36 -98 41 -107 5 -10 9
-23 9 -29 0 -6 6 -25 14 -42 7 -18 28 -72 46 -122 18 -49 36 -99 40 -110 4
-11 22 -60 40 -110 18 -49 36 -99 40 -110 4 -11 22 -60 40 -110 17 -49 35 -99
40 -110 5 -11 13 -33 18 -50 11 -32 69 -192 122 -335 67 -182 64 -165 37 -207
-13 -21 -27 -48 -31 -60 -4 -13 -11 -23 -16 -23 -5 0 -110 73 -234 162 -124
90 -403 291 -621 448 -1033 745 -1192 859 -1214 877 l-23 19 124 184 c112 167
540 804 697 1038 34 50 67 92 74 92 6 0 23 -12 37 -27z m-1958 -102 c105 -45
162 -131 161 -246 0 -80 -20 -128 -76 -186 -51 -53 -100 -72 -182 -73 -55 0
-80 5 -118 24 -119 60 -174 192 -135 324 15 51 108 147 158 163 56 18 143 15
192 -6z m6063 -152 c96 -49 145 -129 145 -234 0 -82 -26 -141 -87 -194 -137
-121 -346 -81 -427 81 -72 144 14 328 172 368 54 13 150 3 197 -21z m-2259
-548 c53 -26 107 -79 134 -131 31 -60 31 -167 0 -232 -47 -101 -156 -164 -268
-156 -68 5 -118 27 -166 74 -59 57 -80 108 -80 194 -1 113 40 184 139 241 43
25 61 29 126 29 54 0 86 -5 115 -19z m1677 -1407 c59 -30 97 -65 127 -117 26
-45 30 -62 30 -125 0 -106 -42 -180 -133 -232 -45 -26 -62 -30 -125 -30 -112
0 -189 46 -239 144 -19 38 -25 64 -25 116 0 106 51 189 147 238 51 27 170 30
218 6z m-5354 -280 c101 -30 181 -140 181 -249 0 -141 -124 -265 -265 -265
-141 0 -265 124 -265 265 0 84 50 176 120 220 73 46 143 55 229 29z m3396
-140 c206 -97 206 -391 0 -488 -99 -47 -214 -30 -299 45 -115 100 -117 290 -4
395 56 53 105 73 181 74 53 0 80 -6 122 -26z"/>
<path d="M5598 4229 c-10 -5 -18 -19 -18 -29 0 -10 -8 -23 -17 -29 -15 -8 -16
-13 -5 -30 6 -12 12 -41 12 -67 0 -49 15 -88 31 -79 5 4 9 35 9 70 0 56 3 66
22 76 20 11 20 13 5 24 -21 15 -22 35 -1 35 20 0 14 34 -6 37 -8 2 -23 -2 -32
-8z"/>
<path d="M4878 3439 c-40 -32 -52 -67 -20 -54 35 13 37 10 40 -67 2 -60 6 -78
17 -78 12 0 15 21 15 115 0 63 -3 115 -7 115 -5 -1 -25 -14 -45 -31z"/>
<path d="M5020 3448 c-16 -18 -20 -35 -20 -95 0 -65 3 -77 25 -98 30 -30 54
-31 89 -4 24 19 26 26 26 100 0 66 -3 82 -20 99 -27 27 -74 26 -100 -2z m78
-20 c19 -19 15 -133 -4 -153 -14 -14 -19 -14 -38 -2 -16 11 -22 26 -24 70 -2
31 2 66 8 77 12 22 40 26 58 8z"/>
<path d="M4151 3304 c-24 -31 -25 -38 -10 -66 8 -14 8 -23 0 -31 -20 -20 -13
-84 11 -101 30 -21 81 -20 101 2 25 27 19 189 -8 208 -31 23 -71 17 -94 -12z
m79 -19 c15 -19 -3 -45 -31 -45 -23 0 -32 15 -24 40 7 24 37 26 55 5z m5 -119
c0 -36 -27 -56 -52 -40 -40 25 -20 77 26 72 21 -2 26 -8 26 -32z"/>
<path d="M4592 1587 c-39 -40 -42 -60 -7 -51 24 6 24 5 27 -72 2 -51 7 -79 16
-82 9 -3 12 25 12 117 0 67 -4 121 -8 121 -4 0 -22 -15 -40 -33z"/>
<path d="M4772 1568 c-86 -118 -87 -124 -17 -130 35 -3 40 -6 43 -31 4 -31 25
-32 30 -1 2 10 11 25 20 32 16 12 16 14 0 26 -14 10 -18 28 -18 79 0 36 -4 68
-9 72 -6 3 -27 -18 -49 -47z m26 -69 c-2 -16 -11 -25 -25 -27 -28 -4 -28 1 -6
39 19 32 37 25 31 -12z"/>
<path d="M5021 1451 c0 -13 -5 -40 -10 -60 -19 -75 -31 -138 -36 -191 -4 -48
-3 -50 5 -20 5 19 14 60 20 90 5 30 15 79 21 108 5 30 8 63 6 75 -4 21 -4 21
-6 -2z"/>
<path d="M4957 1120 c-7 -29 -27 -148 -33 -200 -3 -26 -2 -30 5 -15 4 11 12
45 15 75 4 30 12 70 17 87 6 18 9 43 7 55 -4 23 -4 23 -11 -2z"/>
<path d="M4900 810 c-6 -41 -16 -88 -21 -104 -5 -16 -9 -41 -8 -55 0 -23 1
-24 9 -6 13 31 43 211 38 227 -3 7 -11 -21 -18 -62z"/>
<path d="M6283 2566 c-42 -40 -43 -57 -3 -49 l30 6 0 -77 c0 -62 3 -76 15 -76
13 0 15 17 13 112 -2 64 -7 112 -13 114 -5 1 -25 -12 -42 -30z"/>
<path d="M6457 2564 c-41 -39 -42 -54 -2 -46 25 4 25 4 25 -72 0 -61 3 -76 15
-76 12 0 15 19 15 115 0 63 -3 115 -7 115 -5 0 -25 -16 -46 -36z"/>
<path d="M5718 1886 c-46 -40 -49 -58 -8 -50 l29 6 3 -78 c2 -44 7 -79 13 -79
12 0 19 215 8 226 -4 4 -25 -7 -45 -25z"/>
<path d="M5843 1908 c-10 -17 10 -28 48 -28 21 0 39 -2 39 -4 0 -2 -14 -34
-31 -71 -30 -67 -35 -115 -11 -123 6 -2 12 5 12 15 0 29 28 100 56 144 38 60
31 71 -44 73 -35 0 -66 -2 -69 -6z"/>
<path d="M3482 3467 c-31 -33 -31 -105 1 -135 31 -29 77 -29 105 1 12 13 22
29 22 35 0 18 -37 15 -44 -4 -4 -10 -15 -14 -33 -12 -25 3 -28 7 -31 45 -2 33
1 44 16 52 16 8 26 6 47 -11 35 -28 56 -11 31 26 -22 35 -83 36 -114 3z"/>
<path d="M3462 2167 c-40 -41 -40 -50 -2 -42 l30 7 0 -81 c0 -65 3 -81 15 -81
12 0 15 19 15 115 0 130 -5 137 -58 82z"/>
<path d="M3612 2184 c-24 -16 -30 -54 -9 -54 7 0 18 9 25 21 19 30 66 23 70
-11 2 -19 -10 -38 -53 -80 -30 -30 -55 -63 -55 -73 0 -16 8 -18 73 -15 81 3
98 21 25 26 -27 2 -48 5 -48 8 0 3 21 24 46 47 40 36 46 47 46 81 0 27 -6 44
-18 53 -24 18 -75 16 -102 -3z"/>
<path d="M1227 2882 c-10 -11 -13 -23 -8 -31 9 -14 22 -11 52 11 17 12 49 5
49 -11 0 -5 -17 -12 -37 -16 -46 -8 -73 -31 -73 -60 0 -35 20 -45 87 -45 l63
0 0 73 c0 43 -5 78 -12 85 -19 19 -102 15 -121 -6z m93 -90 c0 -14 -23 -32
-41 -32 -24 0 -35 20 -18 31 18 11 59 12 59 1z"/>
<path d="M7257 2853 c-4 -3 -7 -57 -7 -120 0 -94 3 -113 15 -113 11 0 15 12
15 48 0 49 21 92 45 92 21 0 28 -17 34 -82 3 -32 11 -60 16 -61 14 -3 19 142
5 158 -7 8 -30 15 -53 17 -39 3 -42 5 -45 36 -3 31 -11 39 -25 25z"/>
<path d="M5030 2200 c-15 -15 -20 -33 -20 -69 0 -42 4 -53 26 -70 15 -12 39
-21 53 -21 35 0 71 26 71 51 0 23 -22 25 -40 4 -15 -18 -42 -19 -58 -3 -21 21
-13 27 46 30 57 3 57 3 54 33 -2 17 -11 38 -19 48 -23 24 -87 23 -113 -3z m88
-27 c2 -9 -8 -13 -33 -13 -33 0 -36 2 -25 15 15 18 51 16 58 -2z"/>
<path d="M6718 789 c-22 -12 -39 -73 -31 -110 7 -34 41 -59 84 -59 27 0 30 -2
19 -15 -16 -19 -47 -19 -67 1 -21 21 -43 2 -27 -24 8 -12 27 -18 62 -20 72 -4
84 15 80 139 l-3 94 -50 2 c-27 2 -58 -2 -67 -8z m70 -41 c7 -7 12 -24 12 -38
0 -51 -53 -70 -70 -25 -19 51 24 97 58 63z"/>
<path d="M1367 604 c-4 -4 -7 -58 -7 -121 0 -104 2 -113 19 -113 10 0 32 -3
49 -6 45 -9 82 30 82 88 0 61 -21 88 -70 88 -36 0 -39 2 -42 32 -3 31 -17 45
-31 32z m91 -106 c7 -7 12 -26 12 -43 0 -58 -49 -76 -70 -25 -10 25 -10 34 4
55 18 27 35 32 54 13z"/>
<path d="M4840 431 c0 -29 -2 -31 -38 -31 -54 0 -76 -26 -76 -92 0 -68 25 -89
98 -86 l51 3 0 115 c0 101 -2 115 -17 118 -14 3 -18 -3 -18 -27z m-18 -78 c20
-18 24 -63 6 -81 -43 -43 -93 34 -51 80 20 22 22 22 45 1z"/>
<path d="M4426 4145 c-24 -22 -26 -31 -26 -99 0 -64 3 -78 22 -96 27 -25 79
-26 101 -2 11 12 17 36 17 65 0 38 -4 49 -25 63 -16 11 -34 14 -55 9 -35 -8
-41 12 -12 38 23 21 36 21 52 2 16 -19 40 -19 40 -1 0 19 -39 46 -66 46 -11 0
-33 -11 -48 -25z m73 -99 c17 -20 10 -67 -11 -80 -41 -25 -76 38 -42 75 20 23
37 24 53 5z"/>
<path d="M6685 3718 c-25 -14 -35 -28 -35 -50 0 -25 27 -22 33 3 4 15 12 20
33 17 15 -2 32 -11 38 -20 8 -14 -1 -28 -52 -82 -83 -87 -82 -96 13 -96 60 0
75 3 75 15 0 11 -12 15 -45 15 -25 0 -45 4 -45 8 0 4 20 28 45 52 55 54 61 96
19 129 -30 24 -50 26 -79 9z"/>
<path d="M6873 3691 c-40 -33 -43 -54 -8 -45 24 6 24 5 27 -72 2 -51 7 -79 16
-82 9 -3 12 24 12 112 0 64 -3 116 -7 116 -5 -1 -23 -13 -40 -29z"/>
<path d="M2072 3547 c-30 -31 -41 -57 -24 -57 4 0 13 5 19 11 22 22 33 -3 33
-77 0 -59 3 -74 15 -74 12 0 15 19 15 115 0 130 -5 137 -58 82z"/>
<path d="M2247 3545 c-39 -36 -43 -64 -7 -45 10 5 21 10 24 10 3 0 6 -36 6
-80 0 -64 3 -80 15 -80 12 0 15 19 15 115 0 63 -3 115 -7 115 -5 0 -25 -16
-46 -35z"/>
<path d="M1312 2005 c0 -49 3 -110 7 -135 7 -38 9 -32 9 45 0 50 -3 110 -7
135 -7 38 -9 32 -9 -45z"/>
<path d="M668 1886 c-46 -40 -49 -58 -8 -50 l29 6 3 -78 c2 -44 7 -79 13 -79
12 0 19 215 8 226 -4 4 -25 -7 -45 -25z"/>
<path d="M812 1900 c-24 -23 -27 -35 -11 -45 6 -4 17 3 26 14 19 29 57 24 61
-6 2 -17 -4 -26 -23 -35 -30 -14 -28 -30 6 -38 44 -10 33 -80 -12 -80 -10 0
-24 9 -31 20 -16 25 -38 26 -38 1 0 -43 92 -68 123 -33 14 15 16 35 13 102 -3
72 -6 86 -26 102 -29 24 -61 23 -88 -2z"/>
<path d="M7363 1908 c-10 -17 10 -28 48 -28 42 0 46 -5 26 -35 -40 -60 -60
-165 -32 -165 10 0 15 10 15 29 0 17 5 33 10 36 6 3 10 14 10 24 0 9 14 39 31
65 42 68 38 78 -39 80 -35 0 -66 -2 -69 -6z"/>
<path d="M1334 1720 c0 -58 1 -81 3 -52 2 28 2 76 0 105 -2 28 -3 5 -3 -53z"/>
<path d="M1342 1530 c0 -47 3 -110 8 -140 7 -51 7 -49 8 35 0 50 -3 113 -8
140 -7 46 -7 42 -8 -35z"/>
<path d="M1367 1190 c3 -80 9 -190 13 -245 6 -76 7 -58 3 75 -3 96 -9 207 -13
245 -6 50 -7 28 -3 -75z"/>
<path d="M2072 1187 c-30 -31 -41 -57 -24 -57 4 0 13 5 19 11 22 22 33 -3 33
-77 0 -59 3 -74 15 -74 12 0 15 19 15 115 0 130 -5 137 -58 82z"/>
<path d="M2223 1208 c-12 -15 -25 -103 -17 -111 3 -2 20 0 39 6 44 13 67 -4
63 -47 -3 -27 -7 -31 -36 -34 -22 -2 -34 2 -38 12 -9 23 -34 20 -34 -4 0 -42
92 -56 125 -20 41 45 12 130 -45 130 -34 0 -42 8 -29 31 7 14 21 19 50 19 28
0 39 4 37 13 -6 17 -102 22 -115 5z"/>
<path d="M3296 915 c-29 -27 -30 -48 -4 -53 9 -2 18 6 21 17 7 30 34 37 57 16
11 -10 20 -22 20 -27 0 -6 -27 -38 -60 -72 -82 -85 -80 -96 15 -96 60 0 75 3
75 15 0 11 -12 15 -45 15 -25 0 -45 3 -45 6 0 4 20 29 45 55 54 58 60 96 19
128 -35 28 -65 26 -98 -4z"/>
<path d="M5833 338 c-14 -17 -25 -106 -14 -112 4 -3 22 0 39 6 38 15 62 -2 62
-43 0 -35 -30 -55 -60 -39 -11 6 -20 15 -20 20 0 6 -7 10 -15 10 -23 0 -18
-37 7 -54 53 -38 122 2 122 69 0 45 -28 75 -71 75 -20 0 -33 5 -33 13 0 23 23
37 62 37 39 0 51 13 22 24 -27 11 -91 6 -101 -6z"/>
</g>
</svg>
